# Blender v2.79 (sub 0) OBJ File: 'gugug.blend'
# www.blender.org
mtllib gugug.mtl
o Cube.009_Cube.008
v 0.492717 4.235700 -0.047059
v 0.313249 4.272582 -0.051116
v 0.486715 4.196548 -0.137509
v 0.307247 4.233430 -0.141565
v 0.487336 4.210745 -0.035900
v 0.307868 4.247627 -0.039956
v 0.481334 4.171593 -0.126349
v 0.301867 4.208475 -0.130406
vn 0.1931 0.8957 -0.4005
vn -0.0608 -0.3965 -0.9160
vn -0.1931 -0.8957 0.4005
vn 0.0608 0.3965 0.9160
vn 0.9793 -0.2012 0.0221
vn -0.9793 0.2013 -0.0221
usemtl None
s off
f 1//1 3//1 4//1 2//1
f 3//2 7//2 8//2 4//2
f 7//3 5//3 6//3 8//3
f 5//4 1//4 2//4 6//4
f 3//5 1//5 5//5 7//5
f 8//6 6//6 2//6 4//6
o Cube.008
v 0.468666 4.182973 0.136257
v 0.294426 4.239330 0.129188
v 0.485835 4.225060 0.048599
v 0.311596 4.281417 0.041530
v 0.461518 4.159270 0.123477
v 0.287278 4.215627 0.116407
v 0.478687 4.201357 0.035819
v 0.304448 4.257714 0.028749
vn 0.2566 0.8507 0.4587
vn 0.1739 0.4262 -0.8877
vn -0.2566 -0.8507 -0.4587
vn -0.1739 -0.4262 0.8877
vn 0.9508 -0.3075 0.0386
vn -0.9508 0.3075 -0.0386
usemtl None
s off
f 9//7 11//7 12//7 10//7
f 11//8 15//8 16//8 12//8
f 15//9 13//9 14//9 16//9
f 13//10 9//10 10//10 14//10
f 11//11 9//11 13//11 15//11
f 16//12 14//12 10//12 12//12
o Cube.007
v 0.166123 4.015480 -0.133440
v 0.281727 4.217567 -0.133440
v 0.166123 4.015480 0.124263
v 0.281727 4.217567 0.124263
v 0.545644 3.798376 -0.133440
v 0.661248 4.000463 -0.133440
v 0.545644 3.798376 0.124263
v 0.661248 4.000463 0.124263
vn -0.8680 0.4965 0.0000
vn 0.0000 0.0000 1.0000
vn 0.8680 -0.4965 0.0000
vn 0.0000 0.0000 -1.0000
vn -0.4965 -0.8680 0.0000
vn 0.4965 0.8680 0.0000
usemtl None
s off
f 17//13 19//13 20//13 18//13
f 19//14 23//14 24//14 20//14
f 23//15 21//15 22//15 24//15
f 21//16 17//16 18//16 22//16
f 19//17 17//17 21//17 23//17
f 24//18 22//18 18//18 20//18
o Cube.006
v 0.261721 3.946765 -0.142526
v 0.167623 3.771364 -0.142526
v 0.261721 3.946765 0.137535
v 0.167623 3.771364 0.137535
v 0.149875 4.006768 -0.142526
v 0.055777 3.831367 -0.142526
v 0.149875 4.006768 0.137535
v 0.055777 3.831367 0.137535
vn 0.8812 -0.4727 0.0000
vn 0.0000 0.0000 1.0000
vn -0.8812 0.4727 0.0000
vn -0.0000 0.0000 -1.0000
vn 0.4727 0.8812 0.0000
vn -0.4727 -0.8812 0.0000
usemtl None
s off
f 25//19 27//19 28//19 26//19
f 27//20 31//20 32//20 28//20
f 31//21 29//21 30//21 32//21
f 29//22 25//22 26//22 30//22
f 27//23 25//23 29//23 31//23
f 32//24 30//24 26//24 28//24
o Cube.005
v 0.063060 2.888610 0.055655
v 0.063060 2.888610 0.254053
v -0.130722 2.888610 0.254053
v -0.130722 2.888610 0.055655
v 0.063060 3.269869 0.055655
v 0.063060 3.269869 0.254053
v -0.130722 3.269869 0.254053
v -0.130722 3.269869 0.055655
vn 0.0000 -1.0000 0.0000
vn 0.0000 1.0000 0.0000
vn 1.0000 0.0000 0.0000
vn -0.0000 -0.0000 1.0000
vn -1.0000 -0.0000 -0.0000
vn 0.0000 0.0000 -1.0000
usemtl Material
s off
f 33//25 34//25 35//25 36//25
f 37//26 40//26 39//26 38//26
f 33//27 37//27 38//27 34//27
f 34//28 38//28 39//28 35//28
f 35//29 39//29 40//29 36//29
f 37//30 33//30 36//30 40//30
o Cube.004
v 0.030497 2.893288 -0.270694
v 0.030497 2.893288 -0.072296
v -0.163285 2.893288 -0.072296
v -0.163285 2.893288 -0.270694
v 0.030497 3.274548 -0.270693
v 0.030497 3.274548 -0.072296
v -0.163285 3.274548 -0.072296
v -0.163285 3.274548 -0.270694
vn 0.0000 -1.0000 0.0000
vn 0.0000 1.0000 0.0000
vn 1.0000 0.0000 0.0000
vn -0.0000 -0.0000 1.0000
vn -1.0000 -0.0000 -0.0000
vn 0.0000 0.0000 -1.0000
usemtl Material
s off
f 41//31 42//31 43//31 44//31
f 45//32 48//32 47//32 46//32
f 41//33 45//33 46//33 42//33
f 42//34 46//34 47//34 43//34
f 43//35 47//35 48//35 44//35
f 45//36 41//36 44//36 48//36
o Cube.003
v -0.901390 2.885560 -0.240839
v -0.901390 2.885560 -0.042441
v -1.095172 2.885560 -0.042441
v -1.095172 2.885560 -0.240839
v -0.901390 3.266819 -0.240839
v -0.901390 3.266819 -0.042441
v -1.095172 3.266819 -0.042441
v -1.095172 3.266819 -0.240839
vn 0.0000 -1.0000 0.0000
vn 0.0000 1.0000 0.0000
vn 1.0000 0.0000 0.0000
vn -0.0000 -0.0000 1.0000
vn -1.0000 -0.0000 -0.0000
vn 0.0000 0.0000 -1.0000
usemtl Material
s off
f 49//37 50//37 51//37 52//37
f 53//38 56//38 55//38 54//38
f 49//39 53//39 54//39 50//39
f 50//40 54//40 55//40 51//40
f 51//41 55//41 56//41 52//41
f 53//42 49//42 52//42 56//42
o Cube.002
v -0.902837 2.890336 0.072022
v -0.902837 2.890336 0.270419
v -1.096619 2.890336 0.270419
v -1.096619 2.890336 0.072022
v -0.902837 3.271596 0.072022
v -0.902838 3.271596 0.270419
v -1.096619 3.271596 0.270419
v -1.096619 3.271596 0.072022
vn 0.0000 -1.0000 0.0000
vn 0.0000 1.0000 -0.0000
vn 1.0000 0.0000 0.0000
vn -0.0000 -0.0000 1.0000
vn -1.0000 -0.0000 -0.0000
vn 0.0000 0.0000 -1.0000
usemtl Material
s off
f 57//43 58//43 59//43 60//43
f 61//44 64//44 63//44 62//44
f 57//45 61//45 62//45 58//45
f 58//46 62//46 63//46 59//46
f 59//47 63//47 64//47 60//47
f 61//48 57//48 60//48 64//48
o Cube.001
v -1.228568 3.275900 0.307291
v -1.228568 3.780498 0.307291
v -1.228568 3.275900 -0.307291
v -1.228568 3.780498 -0.307291
v 0.187372 3.275900 0.307291
v 0.187372 3.780498 0.307291
v 0.187372 3.275900 -0.307291
v 0.187372 3.780498 -0.307291
vn -1.0000 0.0000 0.0000
vn 0.0000 0.0000 -1.0000
vn 1.0000 0.0000 0.0000
vn 0.0000 0.0000 1.0000
vn 0.0000 -1.0000 0.0000
vn 0.0000 1.0000 0.0000
usemtl None
s off
f 65//49 66//49 68//49 67//49
f 67//50 68//50 72//50 71//50
f 71//51 72//51 70//51 69//51
f 69//52 70//52 66//52 65//52
f 67//53 71//53 69//53 65//53
f 72//54 68//54 66//54 70//54
o Cube
v -1.077568 3.774898 -0.050940
v -1.077568 3.774898 0.050940
v -1.147198 3.774898 0.050940
v -1.147198 3.774898 -0.050940
v -1.077568 4.156157 -0.050940
v -1.077568 4.156157 0.050940
v -1.147198 4.156157 0.050940
v -1.147198 4.156157 -0.050940
vn 0.0000 -1.0000 0.0000
vn 0.0000 1.0000 0.0000
vn 1.0000 0.0000 0.0000
vn -0.0000 -0.0000 1.0000
vn -1.0000 0.0000 0.0000
vn 0.0000 0.0000 -1.0000
usemtl Material
s off
f 73//55 74//55 75//55 76//55
f 77//56 80//56 79//56 78//56
f 73//57 77//57 78//57 74//57
f 74//58 78//58 79//58 75//58
f 75//59 79//59 80//59 76//59
f 77//60 73//60 76//60 80//60
